<?xml version="1.0" encoding="utf-8"?>
<!-- Generator: Adobe Illustrator 23.0.4, SVG Export Plug-In . SVG Version: 6.00 Build 0)  -->
<svg version="1.1" id="Layer_1" xmlns:serif="http://www.serif.com/"
	 xmlns="http://www.w3.org/2000/svg" xmlns:xlink="http://www.w3.org/1999/xlink" x="0px" y="0px" viewBox="0 0 600 600"
	 style="enable-background:new 0 0 600 600;" xml:space="preserve">
<style type="text/css">
	.st0{display:none;}
	.st1{display:inline;}
	.st2{fill:#D44454;}
	.st3{fill:#FFBB58;}
	.st4{fill:#2BC194;}
	.st5{fill:#00B1E6;}
	.st6{fill:#004C92;}
	.st7{fill:#FFFFFF;}
	.st8{clip-path:url(#SVGID_2_);}
</style>
<g transform="matrix(1,0,0,1,-0.588574,-0.544313)">
	<g id="Rounded_Rectangle_1_1_" transform="matrix(0.945114,-0.32674,0.32674,0.945114,-8.94903,58.0541)" class="st0">
		<g transform="matrix(0.945114,0.32674,-0.32674,0.945114,23.6518,-9.46055)" class="st1">
			<path class="st2" d="M144.3,513.4c-13.8,0-25.9-8.3-30.1-20.5L41.1,276.8c-5.5-16.2,4.2-34.1,21.6-40l347.9-117.9
				c3.7-1.3,7.6-1.9,11.4-1.9c13.8,0,25.9,8.3,30.1,20.5l73.1,216.1c5.5,16.2-4.2,34.1-21.6,40L155.7,511.5
				C152,512.8,148.1,513.4,144.3,513.4L144.3,513.4z"/>
			<path class="st2" d="M422.1,128.4c8.7,0,16.5,4.9,19.2,12.7l73.1,216.1c3.5,10.2-3,21.6-14.5,25.5L152,500.7
				c-2.6,0.9-5.2,1.3-7.8,1.3c-8.7,0-16.5-4.9-19.2-12.7L52,273.1c-3.5-10.2,3-21.6,14.5-25.5l347.9-117.9
				C416.9,128.8,419.5,128.4,422.1,128.4 M422.1,105.5c-5.1,0-10.2,0.8-15.1,2.5L59.1,225.9c-23.4,7.9-36.3,32.4-28.8,54.6
				l73.1,216.1c5.7,17,22.2,28.3,40.9,28.3c5.1,0,10.2-0.8,15.1-2.5l347.9-117.9c23.4-7.9,36.3-32.4,28.8-54.6L463,133.8
				C457.3,116.9,440.8,105.5,422.1,105.5z"/>
		</g>
		<g transform="matrix(0.945114,0.32674,-0.32674,0.945114,38.5375,-37.9081)" class="st1">
			<path class="st3" d="M156.3,433.1c-13.8,0-25.9-8.3-30.1-20.5L53.2,196.4c-5.5-16.2,4.2-34.1,21.6-40L422.7,38.5
				c3.7-1.3,7.6-1.9,11.4-1.9c13.8,0,25.9,8.3,30.1,20.5l73.1,216.1c5.5,16.2-4.2,34.1-21.6,40L167.8,431.2
				C164.1,432.5,160.2,433.1,156.3,433.1L156.3,433.1z"/>
			<path class="st3" d="M434.2,48.1c8.7,0,16.5,4.9,19.2,12.7L526.4,277c3.5,10.2-3,21.6-14.5,25.5L164.1,420.4
				c-2.6,0.9-5.2,1.3-7.8,1.3c-8.7,0-16.5-4.9-19.2-12.7L64.1,192.8c-3.5-10.2,3-21.6,14.5-25.5L426.4,49.4
				C429,48.5,431.6,48.1,434.2,48.1 M434.2,25.2c-5.1,0-10.2,0.8-15.1,2.5L71.2,145.6c-23.4,7.9-36.3,32.4-28.8,54.6l73.1,216.1
				c5.7,17,22.2,28.3,40.9,28.3c5.1,0,10.2-0.8,15.1-2.5l347.9-117.9c23.4-7.9,36.3-32.4,28.8-54.6L475.1,53.5
				C469.3,36.6,452.9,25.2,434.2,25.2z"/>
		</g>
		<g transform="matrix(0.872113,0.489304,-0.489304,0.872113,33.7109,-39.4445)" class="st1">
			<path class="st4" d="M147.3,428.8c-13.8,0-25.9-8.3-30.1-20.5L44.2,192.2c-5.5-16.2,4.2-34.1,21.6-40L413.7,34.3
				c3.7-1.3,7.6-1.9,11.4-1.9c13.8,0,25.9,8.3,30.1,20.5L528.2,269c5.5,16.2-4.2,34.1-21.6,40L158.7,426.9
				C155,428.2,151.2,428.8,147.3,428.8L147.3,428.8z"/>
			<path class="st4" d="M425.1,43.8c8.7,0,16.5,4.9,19.2,12.7l73.1,216.1c3.5,10.2-3,21.6-14.5,25.5L155,416.1
				c-2.6,0.9-5.2,1.3-7.8,1.3c-8.7,0-16.5-4.9-19.2-12.7L55,188.5c-3.5-10.2,3-21.6,14.5-25.5L417.3,45.1
				C419.9,44.2,422.6,43.8,425.1,43.8 M425.1,20.9c-5.1,0-10.2,0.8-15.1,2.5L62.1,141.3c-23.4,7.9-36.3,32.4-28.8,54.6L106.4,412
				c5.7,17,22.2,28.3,40.9,28.3c5.1,0,10.2-0.8,15.1-2.5l347.9-117.9c23.4-7.9,36.3-32.4,28.8-54.6L466,49.2
				C460.3,32.3,443.8,20.9,425.1,20.9z"/>
		</g>
		<g transform="matrix(0.876971,0.480544,-0.480544,0.876971,56.23,-21.0767)" class="st1">
			<path class="st5" d="M219.4,442.5c-13.8,0-25.9-8.3-30.1-20.5l-73.1-216.1c-5.5-16.2,4.2-34.1,21.6-40L485.8,47.9
				c3.7-1.3,7.6-1.9,11.4-1.9c13.8,0,25.9,8.3,30.1,20.5l73.1,216.1c5.5,16.2-4.2,34.1-21.6,40L230.8,440.6
				C227.1,441.8,223.3,442.5,219.4,442.5L219.4,442.5z"/>
			<path class="st5" d="M497.2,57.5c8.7,0,16.5,4.9,19.2,12.7l73.1,216.1c3.5,10.2-3,21.6-14.5,25.5L227.1,429.7
				c-2.6,0.9-5.2,1.3-7.8,1.3c-8.7,0-16.5-4.9-19.2-12.7l-73.1-216.1c-3.5-10.2,3-21.6,14.5-25.5L489.4,58.8
				C492,57.9,494.6,57.5,497.2,57.5 M497.2,34.5c-5.1,0-10.2,0.8-15.1,2.5L134.2,154.9c-23.4,7.9-36.3,32.4-28.8,54.6l73.1,216.1
				c5.7,17,22.2,28.3,40.9,28.3c5.1,0,10.2-0.8,15.1-2.5l347.9-117.9c23.4-7.9,36.3-32.4,28.8-54.6L538.1,62.9
				C532.4,45.9,515.9,34.5,497.2,34.5z"/>
		</g>
	</g>
	<g id="Rounded_Rectangle_1_1_1" transform="matrix(1,0,0,1,12.3739,26.4544)" serif:id="Rounded_Rectangle_1_1_">
		<g>
			<path class="st6" d="M149.5,475.7c-13.8,0-25.9-8.3-30.1-20.5L46.3,239c-5.5-16.2,4.2-34.1,21.6-40L415.8,81.1
				c3.7-1.3,7.6-1.9,11.4-1.9c13.8,0,25.9,8.3,30.1,20.5l73.1,216.1c5.5,16.2-4.2,34.1-21.6,40L160.9,473.8
				C157.2,475,153.3,475.7,149.5,475.7L149.5,475.7z"/>
			<path class="st7" d="M427.3,90.7c8.7,0,16.5,4.9,19.2,12.7l73.1,216.1c3.5,10.2-3,21.6-14.5,25.5L157.2,462.9
				c-2.6,0.9-5.2,1.3-7.8,1.3c-8.7,0-16.5-4.9-19.2-12.7L57.2,235.3c-3.5-10.2,3-21.6,14.5-25.5L419.5,91.9
				C422.1,91.1,424.7,90.7,427.3,90.7 M427.3,67.7c-5.1,0-10.2,0.8-15.1,2.5L64.3,188.1C40.9,196,28,220.5,35.5,242.7l73.1,216.1
				c5.7,17,22.2,28.3,40.9,28.3c5.1,0,10.2-0.8,15.1-2.5l347.9-117.9c23.4-7.9,36.3-32.4,28.8-54.6L468.2,96.1
				C462.5,79.1,446,67.7,427.3,67.7z"/>
		</g>
	</g>
	<g id="IRMA_1_" transform="matrix(1,0,0,1,12.3739,26.4544)">
		<g>
			<defs>
				<polygon id="SVGID_1_" points="521.1,321.7 482.2,205.6 508.1,204.4 547.4,317.3 547.4,65.5 29.8,65.5 29.8,491.6 547.4,491.6 
					547.4,323.4 				"/>
			</defs>
			<clipPath id="SVGID_2_">
				<use xlink:href="#SVGID_1_"  style="overflow:visible;"/>
			</clipPath>
			<g class="st8">
				<rect x="178.7" y="207.8" class="st7" width="21.5" height="113.5"/>
				<path class="st7" d="M225.1,207.8h39.4c11.6,0,21,3.4,28.3,10.2c7.3,6.8,10.9,15.2,10.9,25.3c0,7.1-2,13.5-6,19.2
					c-4,5.7-9.4,9.9-16.2,12.7l26.4,46h-23.7l-23-42.8h-14.7v42.8h-21.5L225.1,207.8L225.1,207.8z M264.5,226.6h-17.9v33.1h17.9
					c5.1,0,9.2-1.5,12.3-4.5c3.1-3,4.6-7,4.6-12c0-4.9-1.5-8.8-4.6-11.9C273.7,228.1,269.6,226.6,264.5,226.6z"/>
				<path class="st7" d="M386.3,291.1l-17.7-0.1l-22.9-40.3v70.5h-21.5V207.8h19.1l34.1,60.5l34.3-60.5h18.9v113.5h-21.5v-70.3
					L386.3,291.1z"/>
				<path class="st7" d="M523.1,321.2l-7.6-24.2h-40.6l-7.6,24.2h-23.3l40.4-113.5h21.6l40.4,113.5H523.1z M495.2,233.2l-15,47.2
					h30.1L495.2,233.2z"/>
			</g>
		</g>
	</g>
</g>
</svg>
